<svg width="41" height="40" viewBox="0 0 41 40" fill="none" xmlns="http://www.w3.org/2000/svg">
<path d="M12.528 6.44C14.088 6.44 15.468 6.668 16.668 7.124C17.892 7.58 19.044 8.264 20.124 9.176L17.316 12.524C16.572 11.948 15.84 11.516 15.12 11.228C14.4 10.94 13.632 10.796 12.816 10.796C11.136 10.796 9.804 11.504 8.82 12.92C7.86 14.336 7.38 16.52 7.38 19.472C7.38 22.376 7.86 24.536 8.82 25.952C9.804 27.344 11.16 28.04 12.888 28.04C13.8 28.04 14.628 27.872 15.372 27.536C16.116 27.176 16.92 26.672 17.784 26.024L20.412 29.408C19.476 30.344 18.336 31.112 16.992 31.712C15.672 32.312 14.208 32.612 12.6 32.612C10.296 32.612 8.292 32.108 6.588 31.1C4.884 30.092 3.552 28.604 2.592 26.636C1.656 24.644 1.188 22.256 1.188 19.472C1.188 16.76 1.668 14.42 2.628 12.452C3.612 10.484 4.956 8.996 6.66 7.988C8.388 6.956 10.344 6.44 12.528 6.44ZM28.2755 4.676V32H22.5875V5.288L28.2755 4.676ZM40.0835 12.884L34.2875 21.272L40.5515 32H34.1435L28.4555 21.56L34.2875 12.884H40.0835Z" fill="black"/>
</svg>
