<svg width="22" height="14" viewBox="0 0 22 14" fill="none" xmlns="http://www.w3.org/2000/svg">
<path d="M12.8334 4.33337C12.8334 4.25004 12.8639 4.17018 12.925 4.09379C12.9861 4.0174 13.0549 3.96532 13.1313 3.93754C13.5896 3.78476 14.0594 3.66671 14.5406 3.58337C15.0219 3.50004 15.5222 3.45837 16.0417 3.45837C16.3778 3.45837 16.7063 3.47573 17.0271 3.51046C17.3479 3.54518 17.6611 3.59726 17.9667 3.66671C18.0584 3.69448 18.1424 3.74657 18.2188 3.82296C18.2952 3.89935 18.3334 3.98615 18.3334 4.08337C18.3334 4.23615 18.2761 4.35421 18.1615 4.43754C18.0469 4.52087 17.9056 4.54171 17.7375 4.50004C17.4778 4.4306 17.2066 4.37851 16.924 4.34379C16.6413 4.30907 16.3472 4.29171 16.0417 4.29171C15.5986 4.29171 15.1709 4.3299 14.7584 4.40629C14.3459 4.48268 13.941 4.59726 13.5438 4.75004C13.3299 4.81949 13.158 4.81601 13.0281 4.73962C12.8983 4.66324 12.8334 4.52782 12.8334 4.33337ZM12.8334 8.91671C12.8334 8.83337 12.8639 8.75004 12.925 8.66671C12.9861 8.58337 13.0549 8.52782 13.1313 8.50004C13.5896 8.34726 14.0594 8.23268 14.5406 8.15629C15.0219 8.0799 15.5222 8.04171 16.0417 8.04171C16.3778 8.04171 16.7063 8.05907 17.0271 8.09379C17.3479 8.12851 17.6611 8.1806 17.9667 8.25004C18.0584 8.27782 18.1424 8.3299 18.2188 8.40629C18.2952 8.48268 18.3334 8.56948 18.3334 8.66671C18.3334 8.81948 18.2761 8.93754 18.1615 9.02087C18.0469 9.10421 17.9056 9.12504 17.7375 9.08337C17.4778 9.01393 17.2066 8.96185 16.924 8.92712C16.6413 8.8924 16.3472 8.87504 16.0417 8.87504C15.5986 8.87504 15.1709 8.90976 14.7584 8.97921C14.3459 9.04865 13.941 9.15976 13.5438 9.31254C13.3299 9.38198 13.158 9.38198 13.0281 9.31254C12.8983 9.2431 12.8334 9.11115 12.8334 8.91671ZM12.8334 6.62504C12.8334 6.54171 12.8639 6.46185 12.925 6.38546C12.9861 6.30907 13.0549 6.25698 13.1313 6.22921C13.5896 6.07643 14.0594 5.95837 14.5406 5.87504C15.0219 5.79171 15.5222 5.75004 16.0417 5.75004C16.3778 5.75004 16.7063 5.7674 17.0271 5.80212C17.3479 5.83685 17.6611 5.88893 17.9667 5.95837C18.0584 5.98615 18.1424 6.03824 18.2188 6.11462C18.2952 6.19101 18.3334 6.27782 18.3334 6.37504C18.3334 6.52782 18.2761 6.64587 18.1615 6.72921C18.0469 6.81254 17.9056 6.83337 17.7375 6.79171C17.4778 6.72226 17.2066 6.67018 16.924 6.63546C16.6413 6.60074 16.3472 6.58337 16.0417 6.58337C15.5986 6.58337 15.1709 6.62157 14.7584 6.69796C14.3459 6.77435 13.941 6.88893 13.5438 7.04171C13.3299 7.11115 13.158 7.10768 13.0281 7.03129C12.8983 6.9549 12.8334 6.81949 12.8334 6.62504ZM5.68335 10.75C6.50835 10.75 7.30662 10.8368 8.07815 11.0105C8.84967 11.1841 9.60974 11.4445 10.3584 11.7917V2.89587C9.67085 2.47921 8.92606 2.15629 8.12398 1.92712C7.3219 1.69796 6.50835 1.58337 5.68335 1.58337C5.1028 1.58337 4.5337 1.64935 3.97606 1.78129C3.41842 1.91324 2.85696 2.07643 2.29169 2.27087V11.3125C2.7653 11.1181 3.30384 10.9757 3.90731 10.8855C4.51078 10.7952 5.1028 10.75 5.68335 10.75ZM11.7334 11.7917C12.4972 11.4445 13.2459 11.1841 13.9792 11.0105C14.7125 10.8368 15.4917 10.75 16.3167 10.75C16.8972 10.75 17.4969 10.7917 18.1156 10.875C18.7344 10.9584 19.2653 11.0695 19.7084 11.2084V2.27087C19.1889 2.03476 18.6389 1.86115 18.0584 1.75004C17.4778 1.63893 16.8972 1.58337 16.3167 1.58337C15.4917 1.58337 14.6934 1.69796 13.9219 1.92712C13.1504 2.15629 12.4209 2.47921 11.7334 2.89587V11.7917ZM11.0459 13.4375C10.9236 13.4375 10.8129 13.4271 10.7136 13.4063C10.6143 13.3855 10.5264 13.3473 10.45 13.2917C9.73196 12.8889 8.96807 12.5764 8.15835 12.3542C7.34863 12.132 6.52363 12.0209 5.68335 12.0209C5.11808 12.0209 4.56808 12.0834 4.03335 12.2084C3.49863 12.3334 2.96391 12.4862 2.42919 12.6667C2.0778 12.8195 1.73787 12.7987 1.4094 12.6042C1.08092 12.4098 0.916687 12.132 0.916687 11.7709V2.12504C0.916687 1.91671 0.970159 1.72574 1.0771 1.55212C1.18405 1.37851 1.34446 1.2431 1.55835 1.14587C2.20002 0.868096 2.86842 0.663235 3.56356 0.531291C4.2587 0.399346 4.9653 0.333374 5.68335 0.333374C6.64585 0.333374 7.58162 0.45143 8.49064 0.687541C9.39967 0.923652 10.2514 1.28476 11.0459 1.77087C11.825 1.28476 12.6615 0.923652 13.5552 0.687541C14.449 0.45143 15.3695 0.333374 16.3167 0.333374C17.0347 0.333374 17.7375 0.399346 18.425 0.531291C19.1125 0.663235 19.7771 0.868096 20.4188 1.14587C20.6327 1.2431 20.7969 1.37851 20.9115 1.55212C21.0261 1.72574 21.0834 1.91671 21.0834 2.12504V11.7709C21.0834 12.1598 20.9115 12.4549 20.5677 12.6563C20.224 12.8577 19.884 12.8612 19.5479 12.6667C19.0285 12.4723 18.5014 12.316 17.9667 12.198C17.432 12.0799 16.882 12.0209 16.3167 12.0209C15.4917 12.0209 14.682 12.132 13.8875 12.3542C13.0931 12.5764 12.3445 12.8889 11.6417 13.2917C11.5653 13.3473 11.4775 13.3855 11.3781 13.4063C11.2788 13.4271 11.1681 13.4375 11.0459 13.4375Z" fill="#DB1616"/>
</svg>
