<svg width="22" height="18" viewBox="0 0 22 18" fill="none" xmlns="http://www.w3.org/2000/svg">
<path d="M12.275 17.3334C11.8917 17.3334 11.6125 17.2292 11.4375 17.0209C11.2625 16.8126 11.2417 16.5556 11.375 16.2501L15.05 8.12508C15.15 7.90286 15.3333 7.71536 15.6 7.56258C15.8667 7.4098 16.1417 7.33341 16.425 7.33341C16.7083 7.33341 16.9875 7.4098 17.2625 7.56258C17.5375 7.71536 17.725 7.90286 17.825 8.12508L21.575 16.1667C21.725 16.4862 21.7083 16.7605 21.525 16.9897C21.3417 17.2188 21.0333 17.3334 20.6 17.3334C20.4167 17.3334 20.2417 17.2848 20.075 17.1876C19.9083 17.0904 19.7917 16.9654 19.725 16.8126L18.9 14.7084H14.1L13.15 16.8334C13.0833 16.9723 12.9667 17.0904 12.8 17.1876C12.6333 17.2848 12.4583 17.3334 12.275 17.3334ZM14.65 13.2501H18.2L16.45 9.20841H16.4L14.65 13.2501ZM6.225 6.12508C6.475 6.48619 6.75 6.83689 7.05 7.17716C7.35 7.51744 7.675 7.86814 8.025 8.22925C8.775 7.57647 9.4 6.89939 9.9 6.198C10.4 5.49661 10.825 4.76397 11.175 4.00008H1C0.716667 4.00008 0.479167 3.92022 0.2875 3.7605C0.0958334 3.60078 0 3.40286 0 3.16675C0 2.93064 0.0958334 2.73272 0.2875 2.573C0.479167 2.41328 0.716667 2.33341 1 2.33341H7V1.50008C7 1.26397 7.09583 1.06605 7.2875 0.906331C7.47917 0.746609 7.71667 0.666748 8 0.666748C8.28333 0.666748 8.52083 0.746609 8.7125 0.906331C8.90417 1.06605 9 1.26397 9 1.50008V2.33341H15C15.2833 2.33341 15.5208 2.41328 15.7125 2.573C15.9042 2.73272 16 2.93064 16 3.16675C16 3.40286 15.9042 3.60078 15.7125 3.7605C15.5208 3.92022 15.2833 4.00008 15 4.00008H13.175C12.8083 4.95841 12.3208 5.89939 11.7125 6.823C11.1042 7.74661 10.3583 8.62508 9.475 9.45842L11.925 11.5209L11.175 13.2084L8 10.6667L3.675 14.2709C3.49167 14.4237 3.26667 14.5001 3 14.5001C2.73333 14.5001 2.50833 14.4167 2.325 14.2501C2.125 14.0973 2.025 13.9098 2.025 13.6876C2.025 13.4654 2.125 13.2709 2.325 13.1042L6.725 9.43758C6.29167 9.00703 5.88333 8.573 5.5 8.1355C5.11667 7.698 4.76667 7.25008 4.45 6.79175C4.25 6.48619 4.23333 6.2223 4.4 6.00008C4.56667 5.77786 4.86667 5.66675 5.3 5.66675C5.48333 5.66675 5.6625 5.71189 5.8375 5.80217C6.0125 5.89244 6.14167 6.00008 6.225 6.12508Z" fill="#DB1616"/>
</svg>
