<svg width="220" height="108" viewBox="0 0 220 108" fill="none" xmlns="http://www.w3.org/2000/svg">
<path d="M35.144 37H27.416L26.84 23.992C26.68 20.888 26.6 18.12 26.6 15.688C26.6 13.832 26.648 12.072 26.744 10.408L21.608 33.496H14.168L8.69598 10.408C8.88798 13.192 8.98398 15.816 8.98398 18.28C8.98398 20.136 8.93598 22.072 8.83998 24.088L8.26398 37H0.583984L3.07998 3.736H13.016L18.008 26.296L22.664 3.736H32.648L35.144 37Z" fill="black"/>
<path d="M59.9664 29.608C59.9664 30.568 60.0944 31.272 60.3504 31.72C60.6384 32.168 61.0864 32.504 61.6944 32.728L60.1104 37.672C58.5424 37.544 57.2624 37.208 56.2704 36.664C55.2784 36.088 54.5104 35.192 53.9664 33.976C52.3024 36.536 49.7424 37.816 46.2864 37.816C43.7584 37.816 41.7424 37.08 40.2384 35.608C38.7344 34.136 37.9824 32.216 37.9824 29.848C37.9824 27.064 39.0064 24.936 41.0544 23.464C43.1024 21.992 46.0624 21.256 49.9344 21.256H52.5264V20.152C52.5264 18.648 52.2064 17.624 51.5664 17.08C50.9264 16.504 49.8064 16.216 48.2064 16.216C47.3744 16.216 46.3664 16.344 45.1824 16.6C43.9984 16.824 42.7824 17.144 41.5344 17.56L39.8064 12.568C41.4064 11.96 43.0384 11.496 44.7024 11.176C46.3984 10.856 47.9664 10.696 49.4064 10.696C53.0544 10.696 55.7264 11.448 57.4224 12.952C59.1184 14.456 59.9664 16.712 59.9664 19.72V29.608ZM48.4944 32.392C50.2224 32.392 51.5664 31.576 52.5264 29.944V25.432H50.6544C48.9264 25.432 47.6304 25.736 46.7664 26.344C45.9344 26.952 45.5184 27.896 45.5184 29.176C45.5184 30.2 45.7744 31 46.2864 31.576C46.8304 32.12 47.5664 32.392 48.4944 32.392Z" fill="black"/>
<path d="M81.9912 35.8C81.0632 36.44 79.9752 36.936 78.7272 37.288C77.5112 37.64 76.2952 37.816 75.0792 37.816C69.5112 37.784 66.7272 34.712 66.7272 28.6V16.792H63.1272V11.512H66.7272V5.992L74.3112 5.128V11.512H80.1672L79.3512 16.792H74.3112V28.504C74.3112 29.688 74.5032 30.536 74.8872 31.048C75.2712 31.56 75.8792 31.816 76.7112 31.816C77.5752 31.816 78.4872 31.544 79.4472 31L81.9912 35.8Z" fill="black"/>
<path d="M99.4509 10.696C101.659 10.696 103.387 11.368 104.635 12.712C105.883 14.056 106.507 15.944 106.507 18.376V37H98.9229V19.672C98.9229 18.392 98.7149 17.512 98.2989 17.032C97.8829 16.52 97.2909 16.264 96.5229 16.264C94.9869 16.264 93.5149 17.352 92.1069 19.528V37H84.5229V1.384L92.1069 0.615997V14.248C93.1629 13.064 94.2829 12.184 95.4669 11.608C96.6509 11 97.9789 10.696 99.4509 10.696Z" fill="black"/>
<path d="M134.45 23.752C134.45 24.808 134.402 25.72 134.306 26.488H118.514C118.77 28.632 119.378 30.136 120.338 31C121.298 31.864 122.626 32.296 124.322 32.296C125.346 32.296 126.338 32.12 127.298 31.768C128.258 31.384 129.298 30.808 130.418 30.04L133.538 34.264C130.562 36.632 127.25 37.816 123.602 37.816C119.474 37.816 116.306 36.6 114.098 34.168C111.89 31.736 110.786 28.472 110.786 24.376C110.786 21.784 111.25 19.464 112.178 17.416C113.106 15.336 114.466 13.704 116.258 12.52C118.05 11.304 120.194 10.696 122.69 10.696C126.37 10.696 129.25 11.848 131.33 14.152C133.41 16.456 134.45 19.656 134.45 23.752ZM127.01 21.592C126.946 17.688 125.57 15.736 122.882 15.736C121.57 15.736 120.546 16.216 119.81 17.176C119.106 18.136 118.674 19.72 118.514 21.928H127.01V21.592Z" fill="black"/>
<path d="M160.214 37H153.638L153.302 33.784C151.446 36.472 148.87 37.816 145.574 37.816C143.238 37.816 141.462 37.112 140.246 35.704C139.062 34.296 138.47 32.328 138.47 29.8V11.512H146.054V28.84C146.054 30.088 146.246 30.968 146.63 31.48C147.046 31.96 147.67 32.2 148.502 32.2C150.102 32.2 151.478 31.208 152.63 29.224V11.512H160.214V37Z" fill="black"/>
<path d="M175.155 10.696C176.979 10.696 178.691 10.968 180.291 11.512C181.891 12.056 183.299 12.824 184.515 13.816L181.731 18.088C179.651 16.776 177.555 16.12 175.443 16.12C174.451 16.12 173.683 16.296 173.139 16.648C172.627 16.968 172.371 17.432 172.371 18.04C172.371 18.52 172.483 18.92 172.707 19.24C172.963 19.528 173.459 19.832 174.195 20.152C174.931 20.472 176.067 20.856 177.603 21.304C180.259 22.072 182.227 23.08 183.507 24.328C184.819 25.544 185.475 27.24 185.475 29.416C185.475 31.144 184.979 32.648 183.987 33.928C182.995 35.176 181.635 36.136 179.907 36.808C178.179 37.48 176.259 37.816 174.147 37.816C172.003 37.816 170.003 37.48 168.147 36.808C166.323 36.136 164.771 35.208 163.491 34.024L167.187 29.896C169.331 31.56 171.587 32.392 173.955 32.392C175.107 32.392 176.003 32.184 176.643 31.768C177.315 31.352 177.651 30.76 177.651 29.992C177.651 29.384 177.523 28.904 177.267 28.552C177.011 28.2 176.515 27.88 175.779 27.592C175.043 27.272 173.875 26.888 172.275 26.44C169.747 25.704 167.859 24.68 166.611 23.368C165.363 22.056 164.739 20.424 164.739 18.472C164.739 17 165.155 15.688 165.987 14.536C166.851 13.352 168.067 12.424 169.635 11.752C171.235 11.048 173.075 10.696 175.155 10.696Z" fill="black"/>
<path d="M15.704 62.92C17.784 62.92 19.624 63.224 21.224 63.832C22.856 64.44 24.392 65.352 25.832 66.568L22.088 71.032C21.096 70.264 20.12 69.688 19.16 69.304C18.2 68.92 17.176 68.728 16.088 68.728C13.848 68.728 12.072 69.672 10.76 71.56C9.47999 73.448 8.83998 76.36 8.83998 80.296C8.83998 84.168 9.47999 87.048 10.76 88.936C12.072 90.792 13.88 91.72 16.184 91.72C17.4 91.72 18.504 91.496 19.496 91.048C20.488 90.568 21.56 89.896 22.712 89.032L26.216 93.544C24.968 94.792 23.448 95.816 21.656 96.616C19.896 97.416 17.944 97.816 15.8 97.816C12.728 97.816 10.056 97.144 7.78399 95.8C5.51198 94.456 3.73598 92.472 2.45598 89.848C1.20798 87.192 0.583984 84.008 0.583984 80.296C0.583984 76.68 1.22398 73.56 2.50398 70.936C3.81598 68.312 5.60798 66.328 7.87998 64.984C10.184 63.608 12.792 62.92 15.704 62.92Z" fill="black"/>
<path d="M49.3726 89.608C49.3726 90.568 49.5006 91.272 49.7566 91.72C50.0446 92.168 50.4926 92.504 51.1006 92.728L49.5166 97.672C47.9486 97.544 46.6686 97.208 45.6766 96.664C44.6846 96.088 43.9166 95.192 43.3726 93.976C41.7086 96.536 39.1486 97.816 35.6926 97.816C33.1646 97.816 31.1486 97.08 29.6446 95.608C28.1406 94.136 27.3886 92.216 27.3886 89.848C27.3886 87.064 28.4126 84.936 30.4606 83.464C32.5086 81.992 35.4686 81.256 39.3406 81.256H41.9326V80.152C41.9326 78.648 41.6126 77.624 40.9726 77.08C40.3326 76.504 39.2126 76.216 37.6126 76.216C36.7806 76.216 35.7726 76.344 34.5886 76.6C33.4046 76.824 32.1886 77.144 30.9406 77.56L29.2126 72.568C30.8126 71.96 32.4446 71.496 34.1086 71.176C35.8046 70.856 37.3726 70.696 38.8126 70.696C42.4606 70.696 45.1326 71.448 46.8286 72.952C48.5246 74.456 49.3726 76.712 49.3726 79.72V89.608ZM37.9006 92.392C39.6286 92.392 40.9726 91.576 41.9326 89.944V85.432H40.0606C38.3326 85.432 37.0366 85.736 36.1726 86.344C35.3406 86.952 34.9246 87.896 34.9246 89.176C34.9246 90.2 35.1806 91 35.6926 91.576C36.2366 92.12 36.9726 92.392 37.9006 92.392Z" fill="black"/>
<path d="M83.5895 70.696C85.6055 70.696 87.2215 71.384 88.4375 72.76C89.6535 74.104 90.2615 75.976 90.2615 78.376V97H82.6775V79.672C82.6775 77.4 81.9575 76.264 80.5175 76.264C79.7175 76.264 79.0135 76.536 78.4055 77.08C77.7975 77.624 77.2055 78.456 76.6295 79.576V97H69.0455V79.672C69.0455 77.4 68.3255 76.264 66.8855 76.264C66.1175 76.264 65.4135 76.552 64.7735 77.128C64.1655 77.672 63.5735 78.488 62.9975 79.576V97H55.4135V71.512H62.0375L62.5655 74.488C63.5575 73.208 64.6455 72.264 65.8295 71.656C67.0455 71.016 68.4215 70.696 69.9575 70.696C71.3975 70.696 72.6295 71.048 73.6535 71.752C74.7095 72.456 75.4775 73.448 75.9575 74.728C76.9815 73.352 78.1015 72.344 79.3175 71.704C80.5655 71.032 81.9895 70.696 83.5895 70.696Z" fill="black"/>
<path d="M103.544 71.512V97H95.9604V71.512H103.544ZM99.7044 58.072C101.016 58.072 102.088 58.488 102.92 59.32C103.784 60.12 104.216 61.144 104.216 62.392C104.216 63.64 103.784 64.68 102.92 65.512C102.088 66.312 101.016 66.712 99.7044 66.712C98.3924 66.712 97.3204 66.312 96.4884 65.512C95.6564 64.68 95.2404 63.64 95.2404 62.392C95.2404 61.144 95.6564 60.12 96.4884 59.32C97.3204 58.488 98.3924 58.072 99.7044 58.072Z" fill="black"/>
<path d="M124.435 70.696C126.643 70.696 128.371 71.368 129.619 72.712C130.867 74.056 131.491 75.944 131.491 78.376V97H123.907V79.672C123.907 78.392 123.699 77.512 123.283 77.032C122.899 76.52 122.307 76.264 121.507 76.264C119.971 76.264 118.499 77.368 117.091 79.576V97H109.507V71.512H116.131L116.659 74.536C117.747 73.256 118.915 72.296 120.163 71.656C121.443 71.016 122.867 70.696 124.435 70.696Z" fill="black"/>
<path d="M146.186 70.696C148.01 70.696 149.722 70.968 151.322 71.512C152.922 72.056 154.33 72.824 155.546 73.816L152.762 78.088C150.682 76.776 148.586 76.12 146.474 76.12C145.482 76.12 144.714 76.296 144.17 76.648C143.658 76.968 143.402 77.432 143.402 78.04C143.402 78.52 143.514 78.92 143.738 79.24C143.994 79.528 144.49 79.832 145.226 80.152C145.962 80.472 147.098 80.856 148.634 81.304C151.29 82.072 153.258 83.08 154.538 84.328C155.85 85.544 156.506 87.24 156.506 89.416C156.506 91.144 156.01 92.648 155.018 93.928C154.026 95.176 152.666 96.136 150.938 96.808C149.21 97.48 147.29 97.816 145.178 97.816C143.034 97.816 141.034 97.48 139.178 96.808C137.354 96.136 135.802 95.208 134.522 94.024L138.218 89.896C140.362 91.56 142.618 92.392 144.986 92.392C146.138 92.392 147.034 92.184 147.674 91.768C148.346 91.352 148.682 90.76 148.682 89.992C148.682 89.384 148.554 88.904 148.298 88.552C148.042 88.2 147.546 87.88 146.81 87.592C146.074 87.272 144.906 86.888 143.306 86.44C140.778 85.704 138.89 84.68 137.642 83.368C136.394 82.056 135.77 80.424 135.77 78.472C135.77 77 136.186 75.688 137.018 74.536C137.882 73.352 139.098 72.424 140.666 71.752C142.266 71.048 144.106 70.696 146.186 70.696Z" fill="black"/>
<path d="M167.997 60.568V97H160.413V61.384L167.997 60.568ZM183.741 71.512L176.013 82.696L184.365 97H175.821L168.237 83.08L176.013 71.512H183.741Z" fill="black"/>
<rect x="160" y="103" width="60" height="5" fill="#DB1616"/>
</svg>
